<svg width="20" height="31" viewBox="0 0 27 31" fill="none" xmlns="http://www.w3.org/2000/svg">
<path d="M1 21.6298C1 20.5968 1.772 19.7238 2.8 19.6098C10.515 18.7558 15.52 18.8328 23.218 19.6288C23.6024 19.6691 23.9667 19.8206 24.2665 20.0646C24.5663 20.3086 24.7885 20.6347 24.906 21.0029C25.0235 21.3711 25.0312 21.7656 24.9282 22.1382C24.8252 22.5107 24.616 22.8452 24.326 23.1008C15.241 31.0198 10.049 30.9108 1.64 23.1088C1.23 22.7288 1 22.1878 1 21.6298Z" fill="white"/>
<path fill-rule="evenodd" clip-rule="evenodd" d="M23.115 21.6233C15.478 20.8333 10.545 20.7593 2.90901 21.6043C2.65765 21.6336 2.42593 21.7545 2.25821 21.944C2.09049 22.1335 1.99855 22.3782 2.00001 22.6313C2.00001 22.9173 2.11901 23.1883 2.32001 23.3763C6.48801 27.2423 9.64601 28.9893 12.733 29.0003C15.831 29.0113 19.159 27.2783 23.669 23.3483C23.8123 23.2207 23.9154 23.0543 23.9659 22.8693C24.0164 22.6842 24.012 22.4885 23.9533 22.3059C23.8946 22.1233 23.7842 21.9616 23.6354 21.8406C23.4865 21.7196 23.3058 21.6435 23.115 21.6233ZM2.69001 19.6163C10.486 18.7533 15.564 18.8313 23.322 19.6343C23.9003 19.6946 24.4485 19.9223 24.8994 20.2894C25.3503 20.6565 25.6844 21.1471 25.8607 21.7011C26.0371 22.2552 26.0481 22.8487 25.8924 23.4089C25.7367 23.9691 25.421 24.4717 24.984 24.8553C20.409 28.8433 16.599 31.0153 12.727 31.0003C8.84401 30.9863 5.20201 28.7773 0.961006 24.8423C0.657358 24.5594 0.415298 24.217 0.249949 23.8364C0.084599 23.4558 -0.00048753 23.0452 5.79928e-06 22.6303C-0.00145262 21.8847 0.272209 21.1648 0.76857 20.6085C1.26493 20.0521 1.94909 19.6995 2.69001 19.6163Z" fill="white"/>
<path d="M21 8C21 10.1217 20.1571 12.1566 18.6569 13.6569C17.1566 15.1571 15.1217 16 13 16C10.8783 16 8.84344 15.1571 7.34315 13.6569C5.84285 12.1566 5 10.1217 5 8C5 5.87827 5.84285 3.84344 7.34315 2.34315C8.84344 0.842854 10.8783 0 13 0C15.1217 0 17.1566 0.842854 18.6569 2.34315C20.1571 3.84344 21 5.87827 21 8Z" fill="white"/>
<path fill-rule="evenodd" clip-rule="evenodd" d="M13 14C14.5913 14 16.1174 13.3679 17.2426 12.2426C18.3679 11.1174 19 9.5913 19 8C19 6.4087 18.3679 4.88258 17.2426 3.75736C16.1174 2.63214 14.5913 2 13 2C11.4087 2 9.88258 2.63214 8.75736 3.75736C7.63214 4.88258 7 6.4087 7 8C7 9.5913 7.63214 11.1174 8.75736 12.2426C9.88258 13.3679 11.4087 14 13 14ZM13 16C15.1217 16 17.1566 15.1571 18.6569 13.6569C20.1571 12.1566 21 10.1217 21 8C21 5.87827 20.1571 3.84344 18.6569 2.34315C17.1566 0.842854 15.1217 0 13 0C10.8783 0 8.84344 0.842854 7.34315 2.34315C5.84285 3.84344 5 5.87827 5 8C5 10.1217 5.84285 12.1566 7.34315 13.6569C8.84344 15.1571 10.8783 16 13 16Z" fill="white"/>
</svg>
